# xmcd
# 
# Track frame offsets:
#     150
#     12748
#     25552
#     35684
#     50522
#     62566
#     73266
#     82908
#     94013
#     105152
#     117160
#     126851
#     134959
#     146852
#     158502
#     169068
#     181603
#     193662
#     205026
#     214180
#     224803
#     240232
#     251741
#     263389
#     275235
#     286748
#     298032
# 
# Disc length: 4146
# 
# Revision: 5
# Processed by: cddbd v1.5.2PL0 Copyright (c) Steve Scherf et al.
# Submitted via: fre:ac v1.0.17
# 
DISCID=9510301b
DTITLE=Patsy Cline - The Patsy Cline Collection (Honky Tonk Merry Go Round) - Disc 1
DYEAR=0
DGENRE=Rock and Roll
TTITLE0=02 - I'm walking the dog
TTITLE1=03 - It wasn't god who made honky tonk angels
TTITLE2=Turn the cards slowly
TTITLE3=04.A curch - a courtroom and then goodbye
TTITLE4=05 - Honky tonk and merry go round
TTITLE5=06 - I love you honney
TTITLE6=07 - Come on in
TTITLE7=08 - I don't wanta
TTITLE8=09.Stop - look and listen
TTITLE9=10 - I've loved and lost again
TTITLE10=11.Yes - i know why
TTITLE11=12.For - rent
TTITLE12=13 - Walkin' after midnight
TTITLE13=14 - The heart you break may be your own
TTITLE14=15 - Pick me up on your way down
TTITLE15=16 - A poor man's roses
TTITLE16=17.Today - tomorrow and forever
TTITLE17=18 - Don't ever leave me again
TTITLE18=19.Try - again
TTITLE19=Too many secrets
TTITLE20=21 - Then you'll know
TTITLE21=22 - Three cigarettes in an ashtray
TTITLE22=23 - That wonderful someone
TTITLE23=24 - In care of the blues
TTITLE24=25 - Hungry for love
TTITLE25=26 - I can't forget
TTITLE26=27 - If i could see the world
EXTD=
EXTT0=
EXTT1=
EXTT2=
EXTT3=
EXTT4=
EXTT5=
EXTT6=
EXTT7=
EXTT8=
EXTT9=
EXTT10=
EXTT11=
EXTT12=
EXTT13=
EXTT14=
EXTT15=
EXTT16=
EXTT17=
EXTT18=
EXTT19=
EXTT20=
EXTT21=
EXTT22=
EXTT23=
EXTT24=
EXTT25=
EXTT26=
PLAYORDER=
